<?xml version="1.0" encoding="UTF-8" standalone="no"?>
<!-- Created with Inkscape (http://www.inkscape.org/) -->

<svg
   xmlns:dc="http://purl.org/dc/elements/1.1/"
   xmlns:cc="http://creativecommons.org/ns#"
   xmlns:rdf="http://www.w3.org/1999/02/22-rdf-syntax-ns#"
   xmlns:svg="http://www.w3.org/2000/svg"
   xmlns="http://www.w3.org/2000/svg"
   xmlns:sodipodi="http://sodipodi.sourceforge.net/DTD/sodipodi-0.dtd"
   xmlns:inkscape="http://www.inkscape.org/namespaces/inkscape"
   sodipodi:docname="ev-key-btn-b-symbolic.svg"
   height="16"
   id="svg7384"
   inkscape:version="0.92.2 2405546, 2018-03-11"
   version="1.1"
   width="16">
  <metadata
     id="metadata90">
    <rdf:RDF>
      <cc:Work
         rdf:about="">
        <dc:format>image/svg+xml</dc:format>
        <dc:type
           rdf:resource="http://purl.org/dc/dcmitype/StillImage" />
        <dc:title>Gnome Symbolic Icon Theme</dc:title>
      </cc:Work>
    </rdf:RDF>
  </metadata>
  <sodipodi:namedview
     inkscape:bbox-paths="false"
     bordercolor="#666666"
     borderopacity="1"
     inkscape:current-layer="layer11"
     inkscape:cx="12.695373"
     inkscape:cy="1.2924253"
     gridtolerance="10"
     inkscape:guide-bbox="true"
     guidetolerance="10"
     id="namedview88"
     inkscape:object-nodes="false"
     inkscape:object-paths="false"
     objecttolerance="10"
     pagecolor="#555753"
     inkscape:pageopacity="1"
     inkscape:pageshadow="2"
     showborder="false"
     showgrid="true"
     showguides="true"
     inkscape:snap-bbox="true"
     inkscape:snap-bbox-midpoints="false"
     inkscape:snap-global="true"
     inkscape:snap-grids="true"
     inkscape:snap-nodes="false"
     inkscape:snap-others="false"
     inkscape:snap-to-guides="true"
     inkscape:window-height="1376"
     inkscape:window-maximized="0"
     inkscape:window-width="1280"
     inkscape:window-x="0"
     inkscape:window-y="27"
     inkscape:zoom="45.254834">
    <inkscape:grid
       empspacing="2"
       enabled="true"
       id="grid4866"
       snapvisiblegridlinesonly="true"
       spacingx="1"
       spacingy="1"
       type="xygrid"
       visible="true"
       originx="0"
       originy="0" />
  </sodipodi:namedview>
  <title
     id="title9167">Gnome Symbolic Icon Theme</title>
  <defs
     id="defs7386" />
  <g
     inkscape:groupmode="layer"
     id="layer9"
     inkscape:label="status"
     style="display:inline"
     transform="translate(-283,-649)" />
  <g
     inkscape:groupmode="layer"
     id="layer10"
     inkscape:label="devices"
     transform="translate(-283,-649)" />
  <g
     inkscape:groupmode="layer"
     id="layer11"
     inkscape:label="apps"
     transform="translate(-283,-649)">
    <g
       id="g843">
      <circle
         r="2.5"
         cy="652"
         cx="291"
         style="color:#000000;display:inline;overflow:visible;visibility:visible;fill:#bebebe;fill-opacity:1;stroke:none;stroke-width:0.76923078;marker:none;enable-background:new;opacity:0.35"
         id="circle839" />
      <path
         id="circle832"
         transform="translate(283,649)"
         d="M 8 0 A 3 3 0 0 0 5 3 A 3 3 0 0 0 8 6 A 3 3 0 0 0 11 3 A 3 3 0 0 0 8 0 z M 8 1 A 2 2 0 0 1 10 3 A 2 2 0 0 1 8 5 A 2 2 0 0 1 6 3 A 2 2 0 0 1 8 1 z "
         style="color:#000000;display:inline;overflow:visible;visibility:visible;fill:#bebebe;fill-opacity:1;stroke:none;stroke-width:0.92307693;marker:none;enable-background:new" />
    </g>
    <path
       style="color:#000000;display:inline;overflow:visible;visibility:visible;fill:#bebebe;fill-opacity:1;stroke:none;stroke-width:0.92307693;marker:none;enable-background:new"
       d="M 13 5 A 3 3 0 0 0 10 8 A 3 3 0 0 0 13 11 A 3 3 0 0 0 16 8 A 3 3 0 0 0 13 5 z "
       transform="translate(283,649)"
       id="circle834" />
    <g
       id="g849"
       transform="translate(-5,5)">
      <circle
         id="circle845"
         style="color:#000000;display:inline;overflow:visible;visibility:visible;opacity:0.35;fill:#bebebe;fill-opacity:1;stroke:none;stroke-width:0.76923078;marker:none;enable-background:new"
         cx="291"
         cy="652"
         r="2.5" />
      <path
         style="color:#000000;display:inline;overflow:visible;visibility:visible;fill:#bebebe;fill-opacity:1;stroke:none;stroke-width:0.92307693;marker:none;enable-background:new"
         d="M 8,0 A 3,3 0 0 0 5,3 3,3 0 0 0 8,6 3,3 0 0 0 11,3 3,3 0 0 0 8,0 Z M 8,1 A 2,2 0 0 1 10,3 2,2 0 0 1 8,5 2,2 0 0 1 6,3 2,2 0 0 1 8,1 Z"
         transform="translate(283,649)"
         id="path847"
         inkscape:connector-curvature="0" />
    </g>
    <g
       id="g855"
       transform="translate(0,10)">
      <circle
         id="circle851"
         style="color:#000000;display:inline;overflow:visible;visibility:visible;opacity:0.35;fill:#bebebe;fill-opacity:1;stroke:none;stroke-width:0.76923078;marker:none;enable-background:new"
         cx="291"
         cy="652"
         r="2.5" />
      <path
         style="color:#000000;display:inline;overflow:visible;visibility:visible;fill:#bebebe;fill-opacity:1;stroke:none;stroke-width:0.92307693;marker:none;enable-background:new"
         d="M 8,0 A 3,3 0 0 0 5,3 3,3 0 0 0 8,6 3,3 0 0 0 11,3 3,3 0 0 0 8,0 Z M 8,1 A 2,2 0 0 1 10,3 2,2 0 0 1 8,5 2,2 0 0 1 6,3 2,2 0 0 1 8,1 Z"
         transform="translate(283,649)"
         id="path853"
         inkscape:connector-curvature="0" />
    </g>
  </g>
  <g
     inkscape:groupmode="layer"
     id="layer13"
     inkscape:label="places"
     transform="translate(-283,-649)" />
  <g
     inkscape:groupmode="layer"
     id="layer14"
     inkscape:label="mimetypes"
     transform="translate(-283,-649)" />
  <g
     inkscape:groupmode="layer"
     id="layer15"
     inkscape:label="emblems"
     style="display:inline"
     transform="translate(-283,-649)" />
  <g
     inkscape:groupmode="layer"
     id="g71291"
     inkscape:label="emotes"
     style="display:inline"
     transform="translate(-283,-649)" />
  <g
     inkscape:groupmode="layer"
     id="g4953"
     inkscape:label="categories"
     style="display:inline"
     transform="translate(-283,-649)" />
  <g
     inkscape:groupmode="layer"
     id="layer12"
     inkscape:label="actions"
     style="display:inline"
     transform="translate(-283,-649)" />
</svg>
