<?xml version="1.0" encoding="UTF-8"?>
<svg width="256" height="256" version="1.1"
     xmlns="http://www.w3.org/2000/svg"
     xmlns:xlink="http://www.w3.org/1999/xlink">
  <defs>
    <linearGradient id="Gradient" x1="0" x2="0" y1="0" y2="1">
      <stop offset="0%" style="stop-color:#813D9C;stop-opacity:1" />
      <stop offset="100%" style="stop-color:#C061CB;stop-opacity:1" />
    </linearGradient>
    <filter id="alpha-to-white">
      <feColorMatrix in="SourceGraphic" type="matrix"
                     values="0 0 0 0 1 0 0 0 0 1 0 0 0 0 1 0 0 0 1 0"/>
    </filter>
    <g id="child-svg"><svg xmlns="http://www.w3.org/2000/svg" height="16px" viewBox="0 0 16 16" width="16px"><path d="m 4 2 c -1.597656 0 -2.644531 0.664062 -3 2 l -0.738281 8.324219 c -0.261719 1.59375 1.738281 2.175781 2.738281 1.175781 l 2.75 -4.5 h 4.5 l 2.75 4.5 c 1 1 3 0.527344 2.738281 -1.175781 l -0.738281 -8.324219 c -0.214844 -1.203125 -1.402344 -2.03125 -2.972656 -2.027344 z m 0.25 2 h 0.5 c 0.136719 0 0.25 0.113281 0.25 0.25 v 0.75 h 0.75 c 0.136719 0 0.25 0.113281 0.25 0.25 v 0.5 c 0 0.136719 -0.113281 0.25 -0.25 0.25 h -0.75 v 0.75 c 0 0.136719 -0.113281 0.25 -0.25 0.25 h -0.5 c -0.136719 0 -0.25 -0.113281 -0.25 -0.25 v -0.75 h -0.75 c -0.136719 0 -0.25 -0.113281 -0.25 -0.25 v -0.5 c 0 -0.136719 0.113281 -0.25 0.25 -0.25 h 0.75 v -0.75 c 0 -0.136719 0.113281 -0.25 0.25 -0.25 z m 5.765625 -0.113281 c 0.59375 0 1.078125 0.484375 1.078125 1.082031 s -0.484375 1.082031 -1.078125 1.082031 c -0.597656 0 -1.082031 -0.484375 -1.082031 -1.082031 s 0.484375 -1.082031 1.082031 -1.082031 z m 2.96875 2.019531 c 0.597656 0 1.082031 0.484375 1.082031 1.078125 c 0 0.597656 -0.484375 1.082031 -1.082031 1.082031 c -0.59375 0 -1.078125 -0.484375 -1.078125 -1.082031 c 0 -0.59375 0.484375 -1.078125 1.078125 -1.078125 z m 0 0" fill="#222222" /></svg></g>
  </defs>
  <rect
      width="256"
      height="256"
      fill="url(#Gradient)"
      ry="128"
      x="0"
      y="0" />
  <use xlink:href="#child-svg" filter="url(#alpha-to-white)"
       transform="matrix(8,0,0,8,64,64)" />
</svg>